<svg xmlns="http://www.w3.org/2000/svg" id="export" class="canvas" preserveAspectRatio="xMidYMid meet" style="" width="58" height="368"><rect id="background" fill="transparent" pointer-events="all" width="58" height="368"/><g id="origin" transform="translate(2.6328125, 2.6328125) scale(1)"><g id="clusters" class="clusters"/><g id="edge-paths" class="edge-paths"><defs><marker id="arrowhead" viewBox="0 0 10 10" refX="9" refY="5" markerUnits="strokeWidth" markerWidth="8" markerHeight="6" orient="auto" style="fill: rgb(0, 0, 0);"><path d="M 0 0 L 10 5 L 0 10 L 4 5 z" style="stroke-width: 1;"/></marker><marker id="arrowhead-select" viewBox="0 0 10 10" refX="9" refY="5" markerUnits="strokeWidth" markerWidth="8" markerHeight="6" orient="auto" style="fill: rgba(220, 0, 0, 0.9);"><path d="M 0 0 L 10 5 L 0 10 L 4 5 z" style="stroke-width: 1;"/></marker><marker id="arrowhead-hover" viewBox="0 0 10 10" refX="9" refY="5" markerUnits="strokeWidth" markerWidth="8" markerHeight="6" orient="auto" style="fill: rgba(220, 0, 0, 0.9);"><path d="M 0 0 L 10 5 L 0 10 L 4 5 z" style="stroke-width: 1;"/></marker></defs><path id="edge-x" class="edge-path" d="M26.328125,20L26.328125,21.666666666666668C26.328125,23.333333333333332,26.328125,26.666666666666668,26.328125,31.75C26.328125,36.833333333333336,26.328125,43.666666666666664,26.328125,50.5C26.328125,57.333333333333336,26.328125,64.16666666666667,26.328125,69.25C26.328125,74.33333333333333,26.328125,77.66666666666667,26.328125,79.33333333333333L26.328125,81" style="stroke: rgb(0, 0, 0); stroke-width: 1px; fill: none; marker-end: url(&quot;#arrowhead&quot;);"/><path class="edge-path-hit-test" d="M26.328125,20L26.328125,21.666666666666668C26.328125,23.333333333333332,26.328125,26.666666666666668,26.328125,31.75C26.328125,36.833333333333336,26.328125,43.666666666666664,26.328125,50.5C26.328125,57.333333333333336,26.328125,64.16666666666667,26.328125,69.25C26.328125,74.33333333333333,26.328125,77.66666666666667,26.328125,79.33333333333333L26.328125,81" style="pointer-events: stroke; stroke-width: 0.5em; fill: none; stroke: rgb(0, 0, 0); stroke-opacity: 0.001;"/><path id="edge-out1" class="edge-path" d="M26.328125,101L26.328125,102.66666666666667C26.328125,104.33333333333333,26.328125,107.66666666666667,26.328125,111C26.328125,114.33333333333333,26.328125,117.66666666666667,26.328125,119.33333333333333L26.328125,121" style="stroke: rgb(0, 0, 0); stroke-width: 1px; fill: none; marker-end: url(&quot;#arrowhead&quot;);"/><path class="edge-path-hit-test" d="M26.328125,101L26.328125,102.66666666666667C26.328125,104.33333333333333,26.328125,107.66666666666667,26.328125,111C26.328125,114.33333333333333,26.328125,117.66666666666667,26.328125,119.33333333333333L26.328125,121" style="pointer-events: stroke; stroke-width: 0.5em; fill: none; stroke: rgb(0, 0, 0); stroke-opacity: 0.001;"/><path id="edge-out2" class="edge-path" d="M26.328125,141L26.328125,142.66666666666666C26.328125,144.33333333333334,26.328125,147.66666666666666,26.328125,151C26.328125,154.33333333333334,26.328125,157.66666666666666,26.328125,159.33333333333334L26.328125,161" style="stroke: rgb(0, 0, 0); stroke-width: 1px; fill: none; marker-end: url(&quot;#arrowhead&quot;);"/><path class="edge-path-hit-test" d="M26.328125,141L26.328125,142.66666666666666C26.328125,144.33333333333334,26.328125,147.66666666666666,26.328125,151C26.328125,154.33333333333334,26.328125,157.66666666666666,26.328125,159.33333333333334L26.328125,161" style="pointer-events: stroke; stroke-width: 0.5em; fill: none; stroke: rgb(0, 0, 0); stroke-opacity: 0.001;"/><path id="edge-out3" class="edge-path" d="M26.328125,181L26.328125,182.66666666666666C26.328125,184.33333333333334,26.328125,187.66666666666666,26.328125,191C26.328125,194.33333333333334,26.328125,197.66666666666666,26.328125,199.33333333333334L26.328125,201" style="stroke: rgb(0, 0, 0); stroke-width: 1px; fill: none; marker-end: url(&quot;#arrowhead&quot;);"/><path class="edge-path-hit-test" d="M26.328125,181L26.328125,182.66666666666666C26.328125,184.33333333333334,26.328125,187.66666666666666,26.328125,191C26.328125,194.33333333333334,26.328125,197.66666666666666,26.328125,199.33333333333334L26.328125,201" style="pointer-events: stroke; stroke-width: 0.5em; fill: none; stroke: rgb(0, 0, 0); stroke-opacity: 0.001;"/><path id="edge-out4" class="edge-path" d="M26.328125,221L26.328125,222.66666666666666C26.328125,224.33333333333334,26.328125,227.66666666666666,26.328125,231C26.328125,234.33333333333334,26.328125,237.66666666666666,26.328125,239.33333333333334L26.328125,241" style="stroke: rgb(0, 0, 0); stroke-width: 1px; fill: none; marker-end: url(&quot;#arrowhead&quot;);"/><path class="edge-path-hit-test" d="M26.328125,221L26.328125,222.66666666666666C26.328125,224.33333333333334,26.328125,227.66666666666666,26.328125,231C26.328125,234.33333333333334,26.328125,237.66666666666666,26.328125,239.33333333333334L26.328125,241" style="pointer-events: stroke; stroke-width: 0.5em; fill: none; stroke: rgb(0, 0, 0); stroke-opacity: 0.001;"/><path id="edge-out5" class="edge-path" d="M26.328125,261L26.328125,262.6666666666667C26.328125,264.3333333333333,26.328125,267.6666666666667,26.328125,271C26.328125,274.3333333333333,26.328125,277.6666666666667,26.328125,279.3333333333333L26.328125,281" style="stroke: rgb(0, 0, 0); stroke-width: 1px; fill: none; marker-end: url(&quot;#arrowhead&quot;);"/><path class="edge-path-hit-test" d="M26.328125,261L26.328125,262.6666666666667C26.328125,264.3333333333333,26.328125,267.6666666666667,26.328125,271C26.328125,274.3333333333333,26.328125,277.6666666666667,26.328125,279.3333333333333L26.328125,281" style="pointer-events: stroke; stroke-width: 0.5em; fill: none; stroke: rgb(0, 0, 0); stroke-opacity: 0.001;"/><path id="edge-y" class="edge-path" d="M26.328125,301L26.328125,304.4166666666667C26.328125,307.8333333333333,26.328125,314.6666666666667,26.328125,321.5C26.328125,328.3333333333333,26.328125,335.1666666666667,26.328125,338.5833333333333L26.328125,342" style="stroke: rgb(0, 0, 0); stroke-width: 1px; fill: none; marker-end: url(&quot;#arrowhead&quot;);"/><path class="edge-path-hit-test" d="M26.328125,301L26.328125,304.4166666666667C26.328125,307.8333333333333,26.328125,314.6666666666667,26.328125,321.5C26.328125,328.3333333333333,26.328125,335.1666666666667,26.328125,338.5833333333333L26.328125,342" style="pointer-events: stroke; stroke-width: 0.5em; fill: none; stroke: rgb(0, 0, 0); stroke-opacity: 0.001;"/></g><g id="edge-labels" class="edge-labels"><text class="edge-label" id="edge-label-edge-x" transform="translate(31.328125,45)" style="opacity: 1; font-family: -apple-system, BlinkMacSystemFont, &quot;Segoe WPC&quot;, &quot;Segoe UI&quot;, Ubuntu, &quot;Droid Sans&quot;, sans-serif, &quot;PingFang SC&quot;; font-size: 10px;"><tspan xml:space="preserve" dy="1em" x="1">2×1</tspan></text><text class="edge-label" id="edge-label-edge-y" transform="translate(31.328125,316)" style="opacity: 1; font-family: -apple-system, BlinkMacSystemFont, &quot;Segoe WPC&quot;, &quot;Segoe UI&quot;, Ubuntu, &quot;Droid Sans&quot;, sans-serif, &quot;PingFang SC&quot;; font-size: 10px;"><tspan xml:space="preserve" dy="1em" x="1">2×1</tspan></text></g><g id="nodes" class="nodes"><g id="input-name-x" class="node graph-input" transform="translate(16.328125,0)" style=""><g class="node-item graph-item-input" transform="translate(0,0)"><path d="M5,0h10a5,5 0 0 1 5,5v10a5,5 0 0 1 -5,5h-10a5,5 0 0 1 -5,-5v-10a5,5 0 0 1 5,-5z" style="stroke: rgb(0, 0, 0); fill: rgb(238, 238, 238); stroke-width: 0;"/><text x="6" y="13" style="font-family: -apple-system, BlinkMacSystemFont, &quot;Segoe WPC&quot;, &quot;Segoe UI&quot;, Ubuntu, &quot;Droid Sans&quot;, sans-serif, &quot;PingFang SC&quot;; font-size: 11px; text-rendering: geometricprecision; user-select: none;">x</text><title>float32[2,1]</title></g><path class="node node-border" d="M5,0h10a5,5 0 0 1 5,5v10a5,5 0 0 1 -5,5h-10a5,5 0 0 1 -5,-5v-10a5,5 0 0 1 5,-5z" style="stroke: rgb(51, 51, 51); fill: none; stroke-width: 1px;"/></g><g id="node-name-custom_added_MatMul0" class="node graph-node" transform="translate(0,81)" style=""><g class="node-item node-item-type" transform="translate(0,0)"><path d="M5,0h42.65625a5,5 0 0 1 5,5v10a5,5 0 0 1 -5,5h-42.65625a5,5 0 0 1 -5,-5v-10a5,5 0 0 1 5,-5z" style="stroke: rgb(0, 0, 0); fill: rgb(0, 0, 0); stroke-width: 0;"/><text x="6" y="13" style="font-family: -apple-system, BlinkMacSystemFont, &quot;Segoe WPC&quot;, &quot;Segoe UI&quot;, Ubuntu, &quot;Droid Sans&quot;, sans-serif, &quot;PingFang SC&quot;; font-size: 11px; text-rendering: geometricprecision; user-select: none; fill: rgb(255, 255, 255);">MatMul</text><title>custom_added_MatMul0</title></g><path class="node node-border" d="M5,0h42.65625a5,5 0 0 1 5,5v10a5,5 0 0 1 -5,5h-42.65625a5,5 0 0 1 -5,-5v-10a5,5 0 0 1 5,-5z" style="stroke: rgb(51, 51, 51); fill: none; stroke-width: 1px;"/></g><g id="node-name-custom_added_Add1" class="node graph-node" transform="translate(9.2734375,121)" style=""><g class="node-item node-item-type" transform="translate(0,0)"><path d="M5,0h24.109375a5,5 0 0 1 5,5v10a5,5 0 0 1 -5,5h-24.109375a5,5 0 0 1 -5,-5v-10a5,5 0 0 1 5,-5z" style="stroke: rgb(0, 0, 0); fill: rgb(0, 0, 0); stroke-width: 0;"/><text x="6" y="13" style="font-family: -apple-system, BlinkMacSystemFont, &quot;Segoe WPC&quot;, &quot;Segoe UI&quot;, Ubuntu, &quot;Droid Sans&quot;, sans-serif, &quot;PingFang SC&quot;; font-size: 11px; text-rendering: geometricprecision; user-select: none; fill: rgb(255, 255, 255);">Add</text><title>custom_added_Add1</title></g><path class="node node-border" d="M5,0h24.109375a5,5 0 0 1 5,5v10a5,5 0 0 1 -5,5h-24.109375a5,5 0 0 1 -5,-5v-10a5,5 0 0 1 5,-5z" style="stroke: rgb(51, 51, 51); fill: none; stroke-width: 1px;"/></g><g id="node-name-custom_added_Relu2" class="node graph-node" transform="translate(8.1328125,161)" style=""><g class="node-item node-item-type node-item-type-activation" transform="translate(0,0)"><path d="M5,0h26.390625a5,5 0 0 1 5,5v10a5,5 0 0 1 -5,5h-26.390625a5,5 0 0 1 -5,-5v-10a5,5 0 0 1 5,-5z" style="stroke: rgb(0, 0, 0); fill: rgb(112, 41, 33); stroke-width: 0;"/><text x="6" y="13" style="font-family: -apple-system, BlinkMacSystemFont, &quot;Segoe WPC&quot;, &quot;Segoe UI&quot;, Ubuntu, &quot;Droid Sans&quot;, sans-serif, &quot;PingFang SC&quot;; font-size: 11px; text-rendering: geometricprecision; user-select: none; fill: rgb(255, 255, 255);">Relu</text><title>custom_added_Relu2</title></g><path class="node node-border" d="M5,0h26.390625a5,5 0 0 1 5,5v10a5,5 0 0 1 -5,5h-26.390625a5,5 0 0 1 -5,-5v-10a5,5 0 0 1 5,-5z" style="stroke: rgb(51, 51, 51); fill: none; stroke-width: 1px;"/></g><g id="node-name-custom_added_MatMul3" class="node graph-node" transform="translate(0,201)" style=""><g class="node-item node-item-type" transform="translate(0,0)"><path d="M5,0h42.65625a5,5 0 0 1 5,5v10a5,5 0 0 1 -5,5h-42.65625a5,5 0 0 1 -5,-5v-10a5,5 0 0 1 5,-5z" style="stroke: rgb(0, 0, 0); fill: rgb(0, 0, 0); stroke-width: 0;"/><text x="6" y="13" style="font-family: -apple-system, BlinkMacSystemFont, &quot;Segoe WPC&quot;, &quot;Segoe UI&quot;, Ubuntu, &quot;Droid Sans&quot;, sans-serif, &quot;PingFang SC&quot;; font-size: 11px; text-rendering: geometricprecision; user-select: none; fill: rgb(255, 255, 255);">MatMul</text><title>custom_added_MatMul3</title></g><path class="node node-border" d="M5,0h42.65625a5,5 0 0 1 5,5v10a5,5 0 0 1 -5,5h-42.65625a5,5 0 0 1 -5,-5v-10a5,5 0 0 1 5,-5z" style="stroke: rgb(51, 51, 51); fill: none; stroke-width: 1px;"/></g><g id="node-name-custom_added_Add4" class="node graph-node" transform="translate(9.2734375,241)" style=""><g class="node-item node-item-type" transform="translate(0,0)"><path d="M5,0h24.109375a5,5 0 0 1 5,5v10a5,5 0 0 1 -5,5h-24.109375a5,5 0 0 1 -5,-5v-10a5,5 0 0 1 5,-5z" style="stroke: rgb(0, 0, 0); fill: rgb(0, 0, 0); stroke-width: 0;"/><text x="6" y="13" style="font-family: -apple-system, BlinkMacSystemFont, &quot;Segoe WPC&quot;, &quot;Segoe UI&quot;, Ubuntu, &quot;Droid Sans&quot;, sans-serif, &quot;PingFang SC&quot;; font-size: 11px; text-rendering: geometricprecision; user-select: none; fill: rgb(255, 255, 255);">Add</text><title>custom_added_Add4</title></g><path class="node node-border" d="M5,0h24.109375a5,5 0 0 1 5,5v10a5,5 0 0 1 -5,5h-24.109375a5,5 0 0 1 -5,-5v-10a5,5 0 0 1 5,-5z" style="stroke: rgb(51, 51, 51); fill: none; stroke-width: 1px;"/></g><g id="node-name-custom_added_Relu5" class="node graph-node" transform="translate(8.1328125,281)" style=""><g class="node-item node-item-type node-item-type-activation" transform="translate(0,0)"><path d="M5,0h26.390625a5,5 0 0 1 5,5v10a5,5 0 0 1 -5,5h-26.390625a5,5 0 0 1 -5,-5v-10a5,5 0 0 1 5,-5z" style="stroke: rgb(0, 0, 0); fill: rgb(112, 41, 33); stroke-width: 0;"/><text x="6" y="13" style="font-family: -apple-system, BlinkMacSystemFont, &quot;Segoe WPC&quot;, &quot;Segoe UI&quot;, Ubuntu, &quot;Droid Sans&quot;, sans-serif, &quot;PingFang SC&quot;; font-size: 11px; text-rendering: geometricprecision; user-select: none; fill: rgb(255, 255, 255);">Relu</text><title>custom_added_Relu5</title></g><path class="node node-border" d="M5,0h26.390625a5,5 0 0 1 5,5v10a5,5 0 0 1 -5,5h-26.390625a5,5 0 0 1 -5,-5v-10a5,5 0 0 1 5,-5z" style="stroke: rgb(51, 51, 51); fill: none; stroke-width: 1px;"/></g><g class="node" transform="translate(16.328125,342)" style=""><g class="node-item graph-item-output" transform="translate(0,0)"><path d="M5,0h10a5,5 0 0 1 5,5v10a5,5 0 0 1 -5,5h-10a5,5 0 0 1 -5,-5v-10a5,5 0 0 1 5,-5z" style="stroke: rgb(0, 0, 0); fill: rgb(238, 238, 238); stroke-width: 0;"/><text x="6" y="13" style="font-family: -apple-system, BlinkMacSystemFont, &quot;Segoe WPC&quot;, &quot;Segoe UI&quot;, Ubuntu, &quot;Droid Sans&quot;, sans-serif, &quot;PingFang SC&quot;; font-size: 11px; text-rendering: geometricprecision; user-select: none;">y</text><title>float32[2,1]</title></g><path class="node node-border" d="M5,0h10a5,5 0 0 1 5,5v10a5,5 0 0 1 -5,5h-10a5,5 0 0 1 -5,-5v-10a5,5 0 0 1 5,-5z" style="stroke: rgb(51, 51, 51); fill: none; stroke-width: 1px;"/></g></g></g></svg>